<svg width="145" height="145" viewBox="0 0 145 145" fill="none" xmlns="http://www.w3.org/2000/svg">
<path d="M42.2917 66.4583V78.5417H102.708V66.4583C102.708 55.2208 110.442 45.8563 120.833 43.1375V36.25C120.833 26.2813 112.677 18.125 102.708 18.125H42.2917C32.3229 18.125 24.1667 26.2813 24.1667 36.25V43.1375C34.5583 45.8563 42.2917 55.2208 42.2917 66.4583Z" fill="white"/>
<path d="M126.875 54.375C120.229 54.375 114.792 59.8125 114.792 66.4583V90.625H30.2083V66.4583C30.2083 59.8125 24.7708 54.375 18.125 54.375C11.4792 54.375 6.04166 59.8125 6.04166 66.4583V96.6667C6.04166 106.635 14.1979 114.792 24.1667 114.792V120.833C24.1667 124.156 26.8854 126.875 30.2083 126.875C33.5312 126.875 36.25 124.156 36.25 120.833V114.792H108.75V120.833C108.75 124.156 111.469 126.875 114.792 126.875C118.115 126.875 120.833 124.156 120.833 120.833V114.792C130.802 114.792 138.958 106.635 138.958 96.6667V66.4583C138.958 59.8125 133.521 54.375 126.875 54.375Z" fill="white"/>
</svg>
