<svg width="145" height="145" viewBox="0 0 145 145" fill="none" xmlns="http://www.w3.org/2000/svg">
<path d="M77.7563 71.3521C76.348 69.0631 75.576 66.4398 75.5199 63.7529C75.4637 61.066 76.1255 58.4128 77.437 56.067C78.7484 53.7212 80.662 51.7678 82.9802 50.4084C85.2985 49.0489 87.9375 48.3326 90.625 48.3333H96.6667C105.79 48.3333 108.75 42.2917 108.75 42.2917C108.75 42.2917 112.073 78.5417 90.625 78.5417C87.6646 78.5417 84.9458 77.6958 82.65 76.2458C81.2 80.1125 79.0854 86.8792 78.0583 94.1292C85.6708 95.4583 91.8333 99.5062 94.7937 104.823C100.027 101.211 104.306 96.3824 107.264 90.7525C110.221 85.1226 111.767 78.8592 111.771 72.5H129.896C129.896 104.158 104.158 129.896 72.5 129.896C40.8417 129.896 15.1042 104.158 15.1042 72.5C15.1042 40.8417 40.8417 15.1042 72.5 15.1042V0L96.6667 24.1667L72.5 48.3333V33.2292C50.8708 33.2292 33.2292 50.8708 33.2292 72.5C33.2292 85.8521 39.9354 97.6937 50.2063 104.823C53.2875 99.2646 60.0542 95.0354 68.2104 93.9479C67.6667 89.7792 66.6396 85.3688 65.25 81.6833C63.1354 83.4958 60.4167 84.5833 57.3958 84.5833C50.75 84.5833 45.3125 79.1458 45.3125 72.5V66.5188C45.3125 63.1354 44.1646 59.9333 42.2917 57.3958C42.2917 57.3958 69.1771 56.0062 69.4792 72.5C69.4792 74.2521 69.1167 75.8833 68.4521 77.3333C65.9146 75.4 63.2563 73.7083 60.4167 72.5C63.9208 75.0979 68.6938 80.7771 72.5 88.2083C76.5479 78.4208 82.65 68.4521 90.625 60.4167C86.0333 63.5583 81.7438 67.1833 77.7563 71.3521Z" fill="white"/>
</svg>
